<svg width="223" height="33" viewBox="0 0 223 33" fill="none" xmlns="http://www.w3.org/2000/svg">
<rect width="223" height="33" fill="#E5E5E5"/>
<g id="Login Page">
<rect width="1440" height="1024" transform="translate(-1000 -189)" fill="white"/>
<g id="Group 14">
<g id="Group">
<g id="Group_2">
<path id="Vector" d="M207.294 32.0726C215.936 32.0726 222.941 25.0673 222.941 16.4256C222.941 7.784 215.936 0.778625 207.294 0.778625C198.653 0.778625 191.647 7.784 191.647 16.4256C191.647 25.0673 198.653 32.0726 207.294 32.0726ZM204.179 13.3101L215.29 8.42951L210.41 19.541L199.298 24.4216L204.179 13.3101Z" fill="#FF385C"/>
<path id="Vector_2" d="M207.294 18.042C208.286 18.042 209.089 17.2383 209.089 16.247C209.089 15.2557 208.286 14.4521 207.294 14.4521C206.303 14.4521 205.499 15.2557 205.499 16.247C205.499 17.2383 206.303 18.042 207.294 18.042Z" fill="#FF385C"/>
</g>
</g>
<g id="OPENTRIP">
<path d="M25.2487 15.7791C25.2487 6.97965 19.7851 1.96268 12.6537 1.96268C5.48283 1.96268 0.0587158 6.97965 0.0587158 15.7791C0.0587158 24.5391 5.48283 29.5954 12.6537 29.5954C19.7851 29.5954 25.2487 24.5785 25.2487 15.7791ZM19.4831 15.7791C19.4831 21.479 16.7776 24.5653 12.6537 24.5653C8.51665 24.5653 5.8243 21.479 5.8243 15.7791C5.8243 10.0791 8.51665 6.99279 12.6537 6.99279C16.7776 6.99279 19.4831 10.0791 19.4831 15.7791Z" fill="#282828"/>
<path d="M29.4612 29.2277H35.148V20.5071H39.9286C46.1144 20.5071 49.713 16.8166 49.713 11.445C49.713 6.09971 46.1801 2.33041 40.073 2.33041H29.4612V29.2277ZM35.148 15.9498V6.97965H38.983C42.2663 6.97965 43.8555 8.7658 43.8555 11.445C43.8555 14.1111 42.2663 15.9498 39.0092 15.9498H35.148Z" fill="#282828"/>
<path d="M53.4068 29.2277H71.5834V24.5391H59.0935V18.1168H70.5984V13.4282H59.0935V7.01905H71.5309V2.33041H53.4068V29.2277Z" fill="#282828"/>
<path d="M98.5497 2.33041H92.8892V19.2463H92.6528L81.0428 2.33041H76.0521V29.2277H81.7389V12.2987H81.9359L93.6378 29.2277H98.5497V2.33041Z" fill="#282828"/>
<path d="M102.224 7.01905H110.458V29.2277H116.08V7.01905H124.314V2.33041H102.224V7.01905Z" fill="#282828"/>
<path d="M127.952 29.2277H133.639V19.6928H137.789L142.885 29.2277H149.163L143.45 18.7735C146.51 17.4601 148.204 14.794 148.204 11.1167C148.204 5.77137 144.671 2.33041 138.564 2.33041H127.952V29.2277ZM133.639 15.1224V6.97965H137.474C140.757 6.97965 142.346 8.43746 142.346 11.1167C142.346 13.7828 140.757 15.1224 137.5 15.1224H133.639Z" fill="#282828"/>
<path d="M157.91 2.33041H152.223V29.2277H157.91V2.33041Z" fill="#282828"/>
<path d="M162.588 29.2277H168.275V20.5071H173.056C179.242 20.5071 182.84 16.8166 182.84 11.445C182.84 6.09971 179.307 2.33041 173.2 2.33041H162.588V29.2277ZM168.275 15.9498V6.97965H172.11C175.393 6.97965 176.983 8.7658 176.983 11.445C176.983 14.1111 175.393 15.9498 172.136 15.9498H168.275Z" fill="#282828"/>
</g>
</g>
</g>
</svg>
